<?xml version="1.0" encoding="utf-8"?>
<!-- Generator: Adobe Illustrator 26.0.1, SVG Export Plug-In . SVG Version: 6.00 Build 0)  -->
<svg version="1.1" id="Layer_1" xmlns="http://www.w3.org/2000/svg" xmlns:xlink="http://www.w3.org/1999/xlink" x="0px" y="0px"
	 viewBox="0 0 259.15 259.26" style="enable-background:new 0 0 259.15 259.26;" xml:space="preserve">
<style type="text/css">
	.st0{clip-path:url(#SVGID_00000154426227256813661250000011180622914087464100_);}
	.st1{fill:#FFFFFF;}
</style>
<g>
	<defs>
		<rect id="SVGID_1_" width="259.15" height="259.26"/>
	</defs>
	<clipPath id="SVGID_00000078746981912686288800000012611437897420384695_">
		<use xlink:href="#SVGID_1_"  style="overflow:visible;"/>
	</clipPath>
	<g id="Group_117" style="clip-path:url(#SVGID_00000078746981912686288800000012611437897420384695_);">
		<path id="Path_298" class="st1" d="M228.09,0c6.67,1.19,12.91,4.1,18.12,8.43c8.16,6.68,12.88,16.68,12.87,27.22
			c0.09,32.87,0.1,65.75,0.02,98.63c-0.26,19.68-16.15,35.57-35.83,35.83c-8.76,0.05-17.53,0.06-26.3-0.02
			c-1.95-0.02-2.79,0.56-3.19,2.58c-3.2,17.46-18.53,30.06-36.28,29.82c-1.85,0-3.71,0.02-5.56,0c-0.58,0-1.47,0.08-1.7-0.24
			c-1.44-2.02-0.47-4.36-0.7-6.56c-0.12-1.12,0.55-1.59,1.53-1.97c5.71-2.2,7.01-6.11,3.81-11.33c-1.98-3.23-4.1-6.39-5.97-9.68
			c-0.84-1.76-2.7-2.81-4.65-2.62c-21.32,0.09-42.65,0.05-63.97,0.05c-3.59,0-3.62,0-3.59-3.61c0.04-5.45-0.58-4.82,4.9-4.83
			c22.5-0.02,45.02,0.02,67.51-0.06c1.94-0.21,3.82,0.81,4.68,2.57c2.18,3.8,4.48,7.55,6.95,11.16c3.62,5.3,5.99,10.78,3.36,17.57
			c1.61-0.05,3.19-0.48,4.6-1.24c11.39-5.2,16.78-14.31,17.24-26.6c0.12-3.38,0.09-3.38,3.57-3.38c10.54,0,21.08,0.03,31.61-0.02
			c6.63,0.18,13.13-1.9,18.43-5.88c0.52-0.4,1-0.86,1.66-1.42c-0.84-0.44-1.81-0.58-2.74-0.41c-11.04-0.02-22.08-0.09-33.12,0.04
			c-2.58,0.03-3.35-0.77-3.26-3.3c0.23-5.99-0.63-5.17,5.34-5.19c12.56-0.04,25.12,0,37.68-0.02c3.16-0.78,5.25-3.78,4.9-7.01
			c-0.36-0.97-1.25-0.7-1.96-0.71c-3.63-0.03-7.25-0.08-10.87,0c-1.87,0.05-2.76-0.46-2.7-2.54c0.18-7.06-0.8-5.8,5.86-5.92
			c2.44-0.11,4.89-0.1,7.33,0.04c2.53,0.21,3.1-0.82,3.07-3.18c-0.11-10.62-0.05-21.24-0.05-31.86c0-18.71,0-37.42,0-56.13
			c0.28-7.59-2.4-14.99-7.47-20.64c-5.53-6.09-13.45-9.46-21.67-9.22c-47.88-0.05-95.76-0.05-143.62,0
			c-13.55-0.49-25.5,8.8-28.38,22.05c-0.58,2.72-0.86,5.5-0.82,8.28c0,19.64,0,39.28,0,58.92c0,3.76,0,3.78-3.7,3.76
			c-5.3-0.03-4.74,0.52-4.74-4.73c-0.02-19.72,0.29-39.45-0.1-59.17C39.83,19.34,52.59,3.65,70.36,0.31C70.68,0.23,71,0.13,71.31,0
			H228.09z"/>
		<path id="Path_299" class="st1" d="M0,141.61c1.21-7.08,3.71-13.87,7.38-20.04c2.13-3.44,4.66-6.62,7.53-9.48
			c6.68-7.04,17.81-7.33,24.86-0.65c7.5,7.03,14.76,14.31,21.81,21.8c6.33,6.58,6.57,16.9,0.56,23.77
			c-3.96,4.92-3.83,7.15,0.69,11.68c9.24,9.24,18.47,18.47,27.71,27.71c4.14,4.13,6.68,4.27,11.12,0.62
			c7.15-6.39,18.08-5.98,24.74,0.93c6.88,6.7,13.68,13.49,20.38,20.38c7.12,6.79,7.39,18.06,0.6,25.18
			c-0.27,0.28-0.54,0.55-0.83,0.82c-17.61,17.37-45.04,19.87-65.51,5.99C64.76,238.99,49.72,226,36.16,211.54
			c-9.45-9.98-18.22-20.57-26.27-31.7C4.88,172.82,1.5,164.77,0,156.27V141.61z M8.25,148.52c-0.03,8.79,2.61,17.39,7.58,24.64
			c19.1,27.15,42.75,50.8,69.9,69.9c17.01,11.62,39.86,9.65,54.63-4.71c3.89-3.34,4.35-9.19,1.01-13.09
			c-0.2-0.23-0.4-0.45-0.62-0.66c-6.78-6.92-13.63-13.77-20.56-20.56c-3.51-3.67-9.32-3.81-13.01-0.33
			c-7.61,6.46-15.39,6.19-22.44-0.85c-9.54-9.52-19.08-19.06-28.6-28.6c-7.05-7.07-7.37-14.9-0.94-22.45
			c3.51-3.67,3.4-9.48-0.24-13.01c-6.78-6.92-13.64-13.78-20.56-20.56c-3.42-3.69-9.19-3.9-12.87-0.47
			c-0.22,0.21-0.44,0.43-0.64,0.66C12.89,126.42,8.36,137.22,8.25,148.52"/>
		<path id="Path_300" class="st1" d="M149.69,145.83c-7.24,0-14.49-0.06-21.74,0.04c-2.1,0.03-2.76-0.69-2.74-2.77
			c0.08-10.28-0.02-20.56,0.08-30.83c0.02-2.19-0.59-2.92-2.85-2.89c-10.19,0.11-20.39,0-30.58,0.09c-2.23,0.02-3.09-0.55-3.08-2.95
			c0.1-14.32,0.1-28.64,0-42.97c-0.02-2.53,0.89-3.09,3.22-3.07c10.11,0.1,20.22-0.03,30.33,0.1c2.4,0.03,2.98-0.78,2.96-3.04
			c-0.1-10.11,0.03-20.22-0.09-30.33c-0.03-2.44,0.73-3.16,3.15-3.14c14.24,0.1,28.48,0.1,42.71,0c2.45-0.02,3.16,0.74,3.12,3.16
			c-0.11,10.19,0,20.39-0.09,30.58c-0.02,2.07,0.59,2.78,2.71,2.76c10.19-0.09,20.39,0.02,30.58-0.09c2.36-0.03,3.22,0.58,3.21,3.09
			c-0.11,14.24-0.11,28.48,0,42.71c0.02,2.67-0.92,3.22-3.36,3.2c-10.02-0.11-20.05,0.03-30.08-0.1c-2.5-0.03-3.12,0.78-3.09,3.17
			c0.12,10.11,0,20.22,0.09,30.33c0.02,2.32-0.72,3.05-3.02,3.01c-7.16-0.12-14.31-0.04-21.48-0.05 M183.82,100.97
			c5.23,0,10.45-0.07,15.67,0.04c1.95,0.04,2.67-0.52,2.65-2.57c-0.1-8.93-0.1-17.87,0-26.8c0.02-2.12-0.69-2.74-2.76-2.72
			c-10.2,0.09-20.39-0.03-30.59,0.09c-2.42,0.03-3.19-0.69-3.16-3.14c0.12-10.2,0-20.39,0.09-30.59c0.02-2.05-0.56-2.8-2.7-2.78
			c-8.85,0.1-17.7,0.1-26.54,0c-2.25-0.03-2.86,0.69-2.86,2.89c0.1,10.2-0.01,20.39,0.09,30.59c0.02,2.3-0.68,3.05-3.01,3.03
			c-10.28-0.11-20.56,0-30.84-0.08c-1.94-0.01-2.67,0.52-2.65,2.57c0.1,8.93,0.1,17.87,0,26.8c-0.02,2.12,0.69,2.74,2.76,2.72
			c10.2-0.09,20.39,0.03,30.59-0.09c2.42-0.03,3.19,0.7,3.16,3.14c-0.12,10.2,0,20.39-0.09,30.59c-0.02,2.05,0.56,2.8,2.7,2.78
			c8.85-0.1,17.7-0.1,26.54,0c2.25,0.03,2.86-0.7,2.86-2.89c-0.1-10.28,0-20.56-0.08-30.84c-0.02-2.08,0.65-2.81,2.75-2.76
			C173.54,101.06,178.68,100.98,183.82,100.97"/>
		<path id="Path_301" class="st1" d="M222.41,137.75c-4.1,0-4.12,0-4.1-4.35c0.02-4.58-0.33-4.07,4.59-4.1
			c3.86-0.02,3.86,0,3.85,4.59C226.75,137.76,226.75,137.76,222.41,137.75"/>
	</g>
</g>
</svg>
