<?xml version="1.0" encoding="utf-8"?>
<!-- Generator: Adobe Illustrator 26.0.1, SVG Export Plug-In . SVG Version: 6.00 Build 0)  -->
<svg version="1.1" id="Layer_1" xmlns="http://www.w3.org/2000/svg" xmlns:xlink="http://www.w3.org/1999/xlink" x="0px" y="0px"
	 viewBox="0 0 187.42 287.93" style="enable-background:new 0 0 187.42 287.93;" xml:space="preserve">
<style type="text/css">
	.st0{fill:none;}
	.st1{fill:#FFFFFF;}
</style>
<g id="Group_119" transform="translate(0 0)">
	<rect class="st0" width="187.42" height="287.93"/>
	<g id="Group_119-2" transform="translate(0 0)">
		<path id="Path_304" class="st1" d="M182.92,287.93H5.19v-52.18c2.69,0.01,4.85,2.2,4.84,4.89c0,0,0,0,0,0v42.41h168.05v-43.26
			c-0.01-2.69,2.15-4.87,4.84-4.89c0,0,0,0,0,0V287.93z"/>
		<path id="Path_305" class="st1" d="M93.76,156.92c-8.02,0.18-14.38,6.82-14.21,14.85c0.18,8.02,6.82,14.38,14.85,14.21
			c7.9-0.17,14.21-6.63,14.21-14.53C108.51,163.34,101.87,156.84,93.76,156.92 M102.68,171.45c0.22,4.92-3.6,9.09-8.52,9.31
			c-4.92,0.22-9.09-3.6-9.31-8.52c-0.22-4.92,3.6-9.09,8.52-9.31c0.13-0.01,0.26-0.01,0.39-0.01
			C98.58,162.82,102.57,166.63,102.68,171.45"/>
		<path id="Path_306" class="st1" d="M57.74,165.96c-0.14,0.54,0.18,1.08,0.72,1.22c0.08,0.02,0.17,0.03,0.25,0.03h1.56
			c0.35,0,0.68-0.19,0.86-0.49c8.88-17.76,30.47-24.96,48.23-16.08c6.96,3.48,12.6,9.12,16.08,16.08c0.18,0.3,0.51,0.49,0.86,0.49
			h1.56c0.55,0,1-0.45,0.99-1c0-0.08-0.01-0.17-0.03-0.25c-10.78-33.02-60.3-33.02-71.09,0"/>
		<path id="Path_307" class="st1" d="M176.93,162.57c-4.41-20.34-19.67-58.18-71.99-93.6l0.06-6.83c0.02-0.98-0.36-1.92-1.05-2.61
			c-0.68-0.69-1.61-1.08-2.57-1.08H98.7L96.48,0.71c-0.03-0.4-0.37-0.7-0.77-0.68c-0.37,0.02-0.66,0.31-0.68,0.68l-2.98,57.73h-3.31
			c-2.62,0.01-4.73,2.14-4.72,4.76v5.64c-23.72,15.65-63.74,48.08-73.56,93.74H0l6.78,19.41h8.27l2.9,11.84v88.92
			c0.01,0.2,0.05,0.39,0.12,0.57h49.54c-0.46-2.29-2.47-3.94-4.81-3.94v-74.96c2.22-0.02,4.15-1.52,4.71-3.66h54.33
			c0.51,2.14,2.42,3.65,4.62,3.66h0.05v74.96h-0.04c-2.31,0.01-4.29,1.67-4.71,3.94h47.44c0.07-0.18,0.11-0.38,0.11-0.57v-81.99h0.2
			v-7.72l2.71-11.05h8.39l6.78-19.41L176.93,162.57z M52.6,272.5l-4.49,1.1c-3.14,0.36-6.21-1.16-7.82-3.88
			c-2.29-4.54-4.23-0.07-4.23-0.07s-4.24,0.98-7.82-4.61c-1.12-2.53-4.08-3.68-6.61-2.56c-0.05,0.02-0.1,0.04-0.15,0.07v-61.8h26.5
			c0.52,2.14,2.43,3.65,4.63,3.66V272.5z M165.82,265.92c-0.59,0.64-1.14,1.32-1.64,2.04c-1.38,1.91-3.26,3.4-5.44,4.32l-1.66,0.71
			c-0.57,0.24-1.18,0.36-1.79,0.36h-11.55c-7.57,0-4.09,4.62-4.09,4.62c-0.87-0.57-1.87-0.9-2.91-0.96v-72.6
			c2.2-0.03,4.11-1.53,4.67-3.66h24.4L165.82,265.92z M165.98,192.76H21.26L18.66,182h45.68v-1.78c0-12.55,12.85-27.13,29.43-27.13
			s29.42,14.59,29.42,27.13V182h45.43L165.98,192.76z M178.15,178.46h-51.5c-1.14-16.41-18.17-28.9-32.88-28.9
			s-31.72,12.49-32.88,28.9H9.28l-4.31-12.3h8.35l0.29-1.43c3.92-19.6,18.64-57.79,73.14-93.41l0.8-0.53v-7.59
			c0-0.66,0.53-1.2,1.19-1.21l12.74,0.12l-0.07,8.75l0.8,0.54c53.15,35.71,67.66,73.79,71.58,93.32c0.03,0.09,0.07,0.18,0.11,0.27
			c0.01,0.04,0.03,0.09,0.05,0.13c0.07,0.16,0.17,0.31,0.29,0.44c0.04,0.04,0.07,0.07,0.11,0.11c0.12,0.1,0.25,0.19,0.39,0.27
			c0.07,0.03,0.15,0.07,0.23,0.09c0.12,0.04,0.25,0.06,0.38,0.07c0.06,0.02,0.12,0.03,0.19,0.04h6.9L178.15,178.46z"/>
		<path id="Path_308" class="st1" d="M94.36,208.72c-25.3,0-26.04,11.08-26.04,12.35v62.24h8.01v-24.76h4.41v24.76h3.52v-24.76h8.34
			v24.76h3.52v-24.76h7.49v24.76h3.52v-24.76h5.25v24.76h8.01v-62.24C120.4,219.8,119.67,208.72,94.36,208.72 M80.75,255h-4.41
			v-23.9h4.41V255z M83.64,227.55h-7.3v-6.37c0.05-0.29,0.77-3.04,7.3-4.58L83.64,227.55z M92.61,255h-8.34v-23.9h8.34L92.61,255z
			 M87.17,227.55v-11.56c2.39-0.29,4.79-0.43,7.2-0.41c2.1,0,3.94,0.08,5.58,0.23v11.73L87.17,227.55z M103.62,255h-7.5v-23.9h7.49
			L103.62,255z M103.47,227.55v-11.28c8.31,1.47,8.91,4.8,8.91,4.8v6.48H103.47z M107.14,255v-23.9h5.24V255L107.14,255z"/>
		<path id="Path_309" class="st1" d="M168.57,163.9c-2.81-16.98-15.51-50.31-69.01-82.76L94,77.75l-3.7,2.19
			c-55.2,32.59-68.21,66.6-71.05,83.96l-0.53,3.21h36.82l0.57-2c5.11-16.55,20.55-27.71,37.87-27.38
			c17.31-0.33,32.76,10.84,37.87,27.38l0.57,2h36.67L168.57,163.9z M136.49,161.58c-1-2.91-2.32-5.71-3.95-8.33l-0.17-0.32
			c-1.56-2.47-3.39-4.78-5.44-6.87l0,0c-15.48-15.82-40-18.42-58.45-6.2l0,0c-0.07,0.05-0.15,0.11-0.22,0.15
			c-0.19,0.13-0.37,0.26-0.55,0.38c-0.75,0.51-1.48,1.06-2.2,1.64c-0.2,0.15-0.41,0.29-0.61,0.45c-0.02,0.04-0.06,0.08-0.09,0.12
			c-0.83,0.71-1.62,1.43-2.36,2.18c-1.58,1.45-3.02,3.04-4.29,4.77c-0.46,0.57-0.86,1.08-1.08,1.4h0.05
			c-2.12,3.14-3.93,6.47-5.41,9.96c-0.08,0.23-0.19,0.45-0.29,0.67H25.26c0.14-0.62,0.29-1.26,0.45-1.92l0.11-0.05l1.85-6.41
			c6.23-17.57,22.69-43.29,65.38-68.49l0.91-0.54l2.78,1.69c35.79,21.7,52.57,43.55,60.38,60.16v0.02
			c2.09,4.36,3.74,8.92,4.92,13.61h0.02c0.17,0.66,0.32,1.29,0.46,1.92L136.49,161.58z"/>
	</g>
</g>
</svg>
