<svg id="Component_15_1" data-name="Component 15 – 1" xmlns="http://www.w3.org/2000/svg" width="664.42" height="95.623" viewBox="0 0 664.42 95.623">
  <g id="Component_4_2" data-name="Component 4 – 2">
    <path id="Path_101" data-name="Path 101" d="M-1590.31,2279.822c0,.07-.01.14-.01.221a17.384,17.384,0,0,1-5.48,12.509q-5.49,5.445-15.79,5.45-14,0-22.37-12.35l8.25-5.609h2.55c3.43,3.959,7.29,5.959,11.57,5.959a12.923,12.923,0,0,0,6.66-1.55,5.032,5.032,0,0,0,2.6-4.409c0-.081.01-.151.01-.221a4.849,4.849,0,0,0-3.09-4.12l-13.25-3.22a21.517,21.517,0,0,1-8.31-4.689,17.914,17.914,0,0,1-1.5-1.52,14.128,14.128,0,0,1-3.7-9.44q0-8.581,6-13.721a20.815,20.815,0,0,1,13.97-5.15,25.85,25.85,0,0,1,20.17,8.92l-9.33,7.48a13.309,13.309,0,0,0-10.23-4.39,10.23,10.23,0,0,0-6.34,1.71,5.075,5.075,0,0,0-2.23,4.12q0,3.435,4.66,5.42l13.31,3.16a22.991,22.991,0,0,1,6.25,3.411A14.569,14.569,0,0,1-1590.31,2279.822Z" transform="translate(1749.35 -2227.601)" fill="#222831"/>
    <path id="Path_102" data-name="Path 102" d="M-1549.97,2282.432a11.446,11.446,0,0,1-8.5,3.56,11.027,11.027,0,0,1-3.09-.409l5.56-5.54,12.28-12.25,6.04-6.02a28.788,28.788,0,0,0-3.78-4.8,23.283,23.283,0,0,0-17.01-7,23.143,23.143,0,0,0-16.99,7.03,23.31,23.31,0,0,0-6.28,10.791h.01c-.19.73-.35,1.489-.47,2.25-.04.259-.07.509-.1.77a25.363,25.363,0,0,0-.19,3.179,24.882,24.882,0,0,0,.72,6.051,23.141,23.141,0,0,0,6.31,10.929,23.135,23.135,0,0,0,16.99,7.03,23.182,23.182,0,0,0,17.01-7.06,22.567,22.567,0,0,0,3.16-3.919l-10.09-6.521A12.521,12.521,0,0,1-1549.97,2282.432Zm-16.98-16.95a11.6,11.6,0,0,1,8.48-3.5,14.082,14.082,0,0,1,3.15.34l-14.75,14.75a10.919,10.919,0,0,1-.41-3.08,11.618,11.618,0,0,1,1.68-6.2A12.074,12.074,0,0,1-1566.95,2265.482Z" transform="translate(1749.35 -2227.601)" fill="#222831"/>
    <path id="Path_103" data-name="Path 103" d="M-1498.43,2282.432l8.51,8.51a23.2,23.2,0,0,1-17.02,7.06,23.113,23.113,0,0,1-16.98-7.03,23.162,23.162,0,0,1-6.32-10.929,24.882,24.882,0,0,1-.72-6.051,25,25,0,0,1,.76-6.2,23.224,23.224,0,0,1,6.28-10.791,23.122,23.122,0,0,1,16.98-7.03,23.305,23.305,0,0,1,17.02,7l-8.51,8.51a11.714,11.714,0,0,0-8.51-3.5,11.554,11.554,0,0,0-8.51,3.5,12.353,12.353,0,0,0-1.83,2.311,11.7,11.7,0,0,0-1.67,6.2,11.657,11.657,0,0,0,1.61,6.051,12.916,12.916,0,0,0,1.89,2.419,11.5,11.5,0,0,0,8.51,3.53A11.61,11.61,0,0,0-1498.43,2282.432Z" transform="translate(1749.35 -2227.601)" fill="#222831"/>
    <path id="Path_104" data-name="Path 104" d="M-1450.4,2282.432l8.51,8.51a23.188,23.188,0,0,1-17.02,7.06,23.129,23.129,0,0,1-16.98-7.03,23.142,23.142,0,0,1-6.31-10.929c-.12-.48-.22-.971-.32-1.46-.06-.371-.12-.741-.17-1.121s-.09-.75-.13-1.129v-.011c-.03-.38-.06-.77-.07-1.15s-.03-.79-.03-1.18a25,25,0,0,1,.75-6.2,23.31,23.31,0,0,1,6.28-10.791,23.137,23.137,0,0,1,16.98-7.03,23.289,23.289,0,0,1,17.02,7l-8.51,8.51a11.7,11.7,0,0,0-8.51-3.5,11.532,11.532,0,0,0-8.5,3.5,12.019,12.019,0,0,0-1.84,2.311,11.694,11.694,0,0,0-1.66,6.2,11.651,11.651,0,0,0,1.6,6.051,12.575,12.575,0,0,0,1.9,2.419,11.481,11.481,0,0,0,8.5,3.53A11.594,11.594,0,0,0-1450.4,2282.432Z" transform="translate(1749.35 -2227.601)" fill="#222831"/>
    <rect id="Rectangle_18" data-name="Rectangle 18" width="12.009" height="16.108" transform="translate(317.892 24.086)" fill="#222831"/>
    <rect id="Rectangle_19" data-name="Rectangle 19" width="12.009" height="8.578" transform="translate(317.892 10.361)" fill="#222831"/>
    <rect id="Rectangle_20" data-name="Rectangle 20" width="12.009" height="16.251" transform="translate(317.892 52.438)" fill="#222831"/>
    <path id="Path_105" data-name="Path 105" d="M-1361.12,2273.992a24.882,24.882,0,0,1-.72,6.051,23.267,23.267,0,0,1-6.31,10.929,23.151,23.151,0,0,1-16.99,7.03,23.113,23.113,0,0,1-16.98-7.03,23.286,23.286,0,0,1-6.32-10.929h12.9a12.916,12.916,0,0,0,1.89,2.419,11.528,11.528,0,0,0,8.51,3.54,11.535,11.535,0,0,0,8.47-3.54,12.255,12.255,0,0,0,1.91-2.419h.01a11.546,11.546,0,0,0,1.62-6.051,11.617,11.617,0,0,0-1.68-6.2,12.133,12.133,0,0,0-1.86-2.311,11.576,11.576,0,0,0-8.47-3.5,11.57,11.57,0,0,0-8.51,3.5,12.357,12.357,0,0,0-1.83,2.311h-12.92a23.224,23.224,0,0,1,6.28-10.791,23.121,23.121,0,0,1,16.98-7.03,23.159,23.159,0,0,1,16.99,7.03,23.289,23.289,0,0,1,6.27,10.791A25,25,0,0,1-1361.12,2273.992Z" transform="translate(1749.35 -2227.601)" fill="#222831"/>
    <path id="Path_106" data-name="Path 106" d="M-1373.062,2227.6h-12.489l-4.323,17.224h9.607Z" transform="translate(1749.35 -2227.601)" fill="#222831"/>
    <rect id="Rectangle_21" data-name="Rectangle 21" width="12.009" height="16.251" transform="translate(432.831 52.438)" fill="#222831"/>
    <path id="Path_107" data-name="Path 107" d="M-1305.27,2267.793h-12.93a12.473,12.473,0,0,0-1.85-2.311,11.6,11.6,0,0,0-8.48-3.5,11.57,11.57,0,0,0-8.51,3.5,12.187,12.187,0,0,0-1.78,2.26v28.551h-12.01v-44.611h12.01v.55a23.241,23.241,0,0,1,10.29-2.26,23.143,23.143,0,0,1,16.99,7.03A23.289,23.289,0,0,1-1305.27,2267.793Z" transform="translate(1749.35 -2227.601)" fill="#222831"/>
    <path id="Path_108" data-name="Path 108" d="M-1216.77,2280.043l-5.76-12.25-13.22-28.111h-8.92l-13.23,28.111-5.75,12.25h-.01l-7.64,16.25h13.38l3.23-6.861h29.09l3.23,6.861h13.24Zm-23.38-21.561,4.39,9.311,4.54,9.629h-17.84l4.53-9.629Z" transform="translate(1749.35 -2227.601)" fill="#222831"/>
    <path id="Path_109" data-name="Path 109" d="M-1205.011,2287.507v8.783h39.457v-12.009h-20.723l3.682-4.242h-15.937Z" transform="translate(1749.35 -2227.601)" fill="#222831"/>
    <path id="Path_110" data-name="Path 110" d="M-1165.554,2260.4v-8.715h-39.457V2263.7h20.655l-3.556,4.1h15.942Z" transform="translate(1749.35 -2227.601)" fill="#222831"/>
    <path id="Path_111" data-name="Path 111" d="M-1110.66,2280.043v16.25h-12v-.551a23.315,23.315,0,0,1-10.3,2.26,23.129,23.129,0,0,1-16.98-7.03,23.2,23.2,0,0,1-6.32-10.929,24.882,24.882,0,0,1-.72-6.051v-22.31h12.01v22.31a11.668,11.668,0,0,0,1.6,6.051,12.3,12.3,0,0,0,1.93,2.449,11.619,11.619,0,0,0,8.48,3.51,11.558,11.558,0,0,0,8.51-3.51,12.159,12.159,0,0,0,1.79-2.26v-.189Z" transform="translate(1749.35 -2227.601)" fill="#222831"/>
    <rect id="Rectangle_22" data-name="Rectangle 22" width="12.009" height="16.108" transform="translate(626.683 24.086)" fill="#222831"/>
    <rect id="Rectangle_23" data-name="Rectangle 23" width="12" height="56.61" transform="translate(652.42 12.081)" fill="#222831"/>
    <path id="Path_112" data-name="Path 112" d="M-1704.4,2281.774v9.168h-27.5v-43.218h9.168v34.05Z" transform="translate(1749.35 -2227.601)" fill="#222831"/>
    <path id="Path_113" data-name="Path 113" d="M-1676.9,2256.89v.418a17.789,17.789,0,0,0-7.861-1.727,17.673,17.673,0,0,0-12.965,5.371,17.679,17.679,0,0,0-5.368,12.966,17.678,17.678,0,0,0,5.368,12.966,17.668,17.668,0,0,0,12.965,5.367,17.789,17.789,0,0,0,7.861-1.727v.419h9.168V2256.89Zm0,21.741a9.5,9.5,0,0,1-1.361,1.731,8.875,8.875,0,0,1-6.5,2.724,8.805,8.805,0,0,1-6.5-2.7,8.877,8.877,0,0,1-2.668-6.47,8.844,8.844,0,0,1,2.668-6.5,8.839,8.839,0,0,1,6.5-2.672,8.954,8.954,0,0,1,6.5,2.672,9.33,9.33,0,0,1,1.361,1.727Z" transform="translate(1749.35 -2227.601)" fill="#222831"/>
    <path id="Path_114" data-name="Path 114" d="M-1649.72,2247.952l-4.27-4.26-5.76-5.76-4.26-4.269a1.885,1.885,0,0,0-1.33-.551h-73.45a10.556,10.556,0,0,0-10.56,10.56v51.77a10.558,10.558,0,0,0,9.31,10.48v14.71a2.585,2.585,0,0,0,4.41,1.83l16.46-16.46h59.44a10.562,10.562,0,0,0,10.56-10.56v-46.16A1.9,1.9,0,0,0-1649.72,2247.952Zm-4.27,47.49a5.74,5.74,0,0,1-5.74,5.74h-61.43l-14.06,14.06v-13.6l-4.25-.5a5.74,5.74,0,0,1-5.07-5.7v-51.77a5.749,5.749,0,0,1,5.75-5.74h69.75v6.93a7.637,7.637,0,0,0,7.64,7.63h7.41Z" transform="translate(1749.35 -2227.601)" fill="#222831"/>
    <path id="Path_115" data-name="Path 115" d="M-1623.16,2280.043h-2.55l1.63-1.111C-1623.77,2279.313-1623.47,2279.682-1623.16,2280.043Z" transform="translate(1749.35 -2227.601)" fill="#f3f3f3"/>
    <path id="Path_116" data-name="Path 116" d="M-1602.32,2279.822c0,.07-.01.14-.01.221h-.01A1.826,1.826,0,0,0-1602.32,2279.822Z" transform="translate(1749.35 -2227.601)" fill="#f3f3f3"/>
    <path id="Path_117" data-name="Path 117" d="M-1581.73,2267.793c-.19.73-.35,1.489-.47,2.25.12-.761.27-1.52.46-2.25Z" transform="translate(1749.35 -2227.601)" fill="#f3f3f3"/>
    <path id="Path_118" data-name="Path 118" d="M-1257.9,2267.792l-5.75,12.25h-.01Z" transform="translate(1749.35 -2227.601)" fill="#f3f3f3"/>
    <g id="Group_7" data-name="Group 7" transform="translate(100.18 40.192)">
      <path id="Path_119" data-name="Path 119" d="M-1096.93,2267.793v12.25h-46.44a11.668,11.668,0,0,1-1.6-6.051v-6.2Z" transform="translate(1649.17 -2267.792)" fill="#f1db00"/>
      <path id="Path_120" data-name="Path 120" d="M-1482.52,2278.583c.09.489.19.98.31,1.46h-35.13a11.657,11.657,0,0,1-1.61-6.051,11.7,11.7,0,0,1,1.67-6.2h35.11a25,25,0,0,0-.75,6.2c0,.39.01.79.03,1.18s.04.77.07,1.15v.011c.04.379.08.759.13,1.129S-1482.58,2278.212-1482.52,2278.583Z" transform="translate(1649.17 -2267.792)" fill="#f1db00"/>
      <path id="Path_121" data-name="Path 121" d="M-1350.83,2267.793v12.25h-11.01a24.882,24.882,0,0,0,.72-6.051,25,25,0,0,0-.76-6.2Z" transform="translate(1649.17 -2267.792)" fill="#f1db00"/>
      <path id="Path_122" data-name="Path 122" d="M-1156.26,2280.043h-60.51l-5.76-12.25h65.55v6.2A24.882,24.882,0,0,0-1156.26,2280.043Z" transform="translate(1649.17 -2267.792)" fill="#f1db00"/>
      <path id="Path_123" data-name="Path 123" d="M-1373.13,2273.992a11.546,11.546,0,0,1-1.62,6.051h-94.56a11.651,11.651,0,0,1-1.6-6.051,11.694,11.694,0,0,1,1.66-6.2h94.44A11.617,11.617,0,0,1-1373.13,2273.992Z" transform="translate(1649.17 -2267.792)" fill="#f1db00"/>
      <path id="Path_124" data-name="Path 124" d="M-1338.82,2267.793v12.25h75.17l5.75-12.25Zm22.2,4.509a13.379,13.379,0,0,1,.1,1.69A15.549,15.549,0,0,0-1316.62,2272.3Z" transform="translate(1649.17 -2267.792)" fill="#f1db00"/>
      <path id="Path_125" data-name="Path 125" d="M-1231.22,2277.422h-17.84l4.53-9.63h8.77Z" transform="translate(1649.17 -2267.792)" fill="#f1db00"/>
      <path id="Path_126" data-name="Path 126" d="M-1602.32,2279.822c0,.07-.01.14-.01.221h-20.83c-.31-.361-.61-.73-.92-1.111l-1.63,1.111h-23.46v-12.25h22.2a21.517,21.517,0,0,0,8.31,4.689l13.25,3.22A4.849,4.849,0,0,1-1602.32,2279.822Z" transform="translate(1649.17 -2267.792)" fill="#f1db00"/>
      <path id="Path_127" data-name="Path 127" d="M-1582.49,2273.992a24.882,24.882,0,0,0,.72,6.051h-8.55c0-.081.01-.151.01-.221a14.569,14.569,0,0,0-5.63-12.029h14.21c-.19.73-.35,1.489-.47,2.25-.04.259-.07.509-.1.77A25.363,25.363,0,0,0-1582.49,2273.992Z" transform="translate(1649.17 -2267.792)" fill="#f1db00"/>
      <path id="Path_128" data-name="Path 128" d="M-1560.79,2267.793l-9.28,9.279a10.919,10.919,0,0,1-.41-3.08,11.618,11.618,0,0,1,1.68-6.2Z" transform="translate(1649.17 -2267.792)" fill="#f1db00"/>
      <path id="Path_129" data-name="Path 129" d="M-1530.96,2273.992a24.882,24.882,0,0,0,.72,6.051H-1556l12.28-12.25h13.52A25,25,0,0,0-1530.96,2273.992Z" transform="translate(1649.17 -2267.792)" fill="#f1db00"/>
    </g>
  </g>
</svg>
