<svg id="Component_14_1" data-name="Component 14 – 1" xmlns="http://www.w3.org/2000/svg" width="663.402" height="95.623" viewBox="0 0 663.402 95.623">
  <g id="Component_10_9" data-name="Component 10 – 9">
    <path id="Path_101" data-name="Path 101" d="M-1590.377,2279.823c0,.07-.01.14-.01.22a17.4,17.4,0,0,1-5.472,12.51q-5.482,5.444-15.766,5.449-13.974,0-22.336-12.35l8.237-5.609h2.546c3.425,3.959,7.279,5.959,11.552,5.959a12.882,12.882,0,0,0,6.65-1.55,5.032,5.032,0,0,0,2.6-4.409c0-.081.01-.15.01-.22a4.849,4.849,0,0,0-3.085-4.121l-13.23-3.22a21.473,21.473,0,0,1-8.3-4.689,17.886,17.886,0,0,1-1.5-1.52,14.14,14.14,0,0,1-3.694-9.44q0-8.582,5.991-13.721a20.764,20.764,0,0,1,13.949-5.15,25.793,25.793,0,0,1,20.139,8.92l-9.315,7.48a13.279,13.279,0,0,0-10.214-4.39,10.205,10.205,0,0,0-6.331,1.71,5.077,5.077,0,0,0-2.226,4.12q0,3.436,4.653,5.42l13.289,3.16a22.964,22.964,0,0,1,6.241,3.411A14.578,14.578,0,0,1-1590.377,2279.823Z" transform="translate(1749.173 -2227.601)" fill="#f3f3f3"/>
    <path id="Path_102" data-name="Path 102" d="M-1550.02,2282.432a11.42,11.42,0,0,1-8.487,3.561,11,11,0,0,1-3.086-.409l5.552-5.541,12.261-12.25,6.031-6.021a28.843,28.843,0,0,0-3.774-4.8,23.231,23.231,0,0,0-16.984-7,23.091,23.091,0,0,0-16.964,7.029,23.322,23.322,0,0,0-6.271,10.792h.01c-.19.729-.35,1.489-.469,2.25-.04.259-.07.509-.1.77a25.406,25.406,0,0,0-.19,3.179,24.912,24.912,0,0,0,.719,6.051,23.144,23.144,0,0,0,6.3,10.929,23.08,23.08,0,0,0,16.964,7.03,23.13,23.13,0,0,0,16.984-7.059,22.591,22.591,0,0,0,3.155-3.92l-10.074-6.521A12.511,12.511,0,0,1-1550.02,2282.432Zm-16.954-16.95a11.572,11.572,0,0,1,8.467-3.5,14.047,14.047,0,0,1,3.146.34l-14.728,14.75a10.944,10.944,0,0,1-.409-3.08,11.626,11.626,0,0,1,1.677-6.2A12.065,12.065,0,0,1-1566.974,2265.482Z" transform="translate(1749.094 -2227.601)" fill="#f3f3f3"/>
    <path id="Path_103" data-name="Path 103" d="M-1498.48,2282.432l8.5,8.511a23.152,23.152,0,0,1-16.994,7.059,23.059,23.059,0,0,1-16.954-7.03,23.167,23.167,0,0,1-6.31-10.929,24.912,24.912,0,0,1-.719-6.051,25.03,25.03,0,0,1,.759-6.2,23.241,23.241,0,0,1,6.27-10.792,23.069,23.069,0,0,1,16.954-7.029,23.253,23.253,0,0,1,16.994,7l-8.5,8.511a11.687,11.687,0,0,0-8.5-3.5,11.527,11.527,0,0,0-8.5,3.5,12.344,12.344,0,0,0-1.828,2.311,11.709,11.709,0,0,0-1.667,6.2,11.671,11.671,0,0,0,1.607,6.051,12.921,12.921,0,0,0,1.887,2.419,11.477,11.477,0,0,0,8.5,3.53A11.582,11.582,0,0,0-1498.48,2282.432Z" transform="translate(1749.015 -2227.601)" fill="#f3f3f3"/>
    <path id="Path_104" data-name="Path 104" d="M-1450.45,2282.432l8.5,8.511a23.137,23.137,0,0,1-16.994,7.059,23.074,23.074,0,0,1-16.954-7.03,23.14,23.14,0,0,1-6.3-10.929c-.12-.479-.22-.971-.32-1.459-.06-.371-.12-.741-.17-1.122s-.09-.75-.13-1.128v-.011c-.03-.38-.06-.77-.07-1.15s-.03-.79-.03-1.18a25.014,25.014,0,0,1,.749-6.2A23.321,23.321,0,0,1-1475.9,2257a23.084,23.084,0,0,1,16.954-7.029,23.238,23.238,0,0,1,16.994,7l-8.5,8.511a11.671,11.671,0,0,0-8.5-3.5,11.507,11.507,0,0,0-8.487,3.5,12.012,12.012,0,0,0-1.837,2.311,11.708,11.708,0,0,0-1.658,6.2,11.661,11.661,0,0,0,1.6,6.051,12.6,12.6,0,0,0,1.9,2.419,11.456,11.456,0,0,0,8.487,3.53A11.566,11.566,0,0,0-1450.45,2282.432Z" transform="translate(1748.941 -2227.601)" fill="#f3f3f3"/>
    <rect id="Rectangle_18" data-name="Rectangle 18" width="11.99" height="16.108" transform="translate(317.405 24.086)" fill="#f3f3f3"/>
    <rect id="Rectangle_19" data-name="Rectangle 19" width="11.99" height="8.578" transform="translate(317.405 10.361)" fill="#f3f3f3"/>
    <rect id="Rectangle_20" data-name="Rectangle 20" width="11.99" height="16.251" transform="translate(317.405 52.439)" fill="#f3f3f3"/>
    <path id="Path_105" data-name="Path 105" d="M-1361.193,2273.992a24.912,24.912,0,0,1-.719,6.051,23.277,23.277,0,0,1-6.3,10.929,23.1,23.1,0,0,1-16.964,7.03,23.058,23.058,0,0,1-16.954-7.03,23.292,23.292,0,0,1-6.31-10.929h12.88a12.94,12.94,0,0,0,1.887,2.419,11.5,11.5,0,0,0,8.5,3.541,11.509,11.509,0,0,0,8.457-3.541,12.239,12.239,0,0,0,1.907-2.419h.01a11.559,11.559,0,0,0,1.617-6.051,11.629,11.629,0,0,0-1.677-6.2,12.114,12.114,0,0,0-1.857-2.311,11.549,11.549,0,0,0-8.457-3.5,11.545,11.545,0,0,0-8.5,3.5,12.351,12.351,0,0,0-1.827,2.311h-12.9A23.234,23.234,0,0,1-1402.13,2257a23.068,23.068,0,0,1,16.954-7.029,23.109,23.109,0,0,1,16.964,7.029,23.3,23.3,0,0,1,6.26,10.792A25.024,25.024,0,0,1-1361.193,2273.992Z" transform="translate(1748.828 -2227.601)" fill="#f3f3f3"/>
    <path id="Path_106" data-name="Path 106" d="M-1373.087,2227.6h-12.47l-4.316,17.225h9.592Z" transform="translate(1748.798 -2227.601)" fill="#f3f3f3"/>
    <rect id="Rectangle_21" data-name="Rectangle 21" width="11.99" height="16.251" transform="translate(432.168 52.439)" fill="#f3f3f3"/>
    <path id="Path_107" data-name="Path 107" d="M-1305.34,2267.793h-12.91a12.454,12.454,0,0,0-1.847-2.311,11.572,11.572,0,0,0-8.467-3.5,11.545,11.545,0,0,0-8.5,3.5,12.205,12.205,0,0,0-1.777,2.26v28.552h-11.991v-44.612h11.991v.551a23.165,23.165,0,0,1,10.274-2.26A23.091,23.091,0,0,1-1311.6,2257,23.3,23.3,0,0,1-1305.34,2267.793Z" transform="translate(1748.739 -2227.601)" fill="#f3f3f3"/>
    <path id="Path_108" data-name="Path 108" d="M-1216.854,2280.043l-5.751-12.25-13.2-28.111h-8.906l-13.209,28.111-5.742,12.25h-.01l-7.628,16.25h13.359l3.225-6.861h29.045l3.225,6.861h13.22Zm-23.344-21.562,4.383,9.311,4.533,9.629h-17.812l4.523-9.629Z" transform="translate(1748.617 -2227.601)" fill="#f3f3f3"/>
    <path id="Path_109" data-name="Path 109" d="M-1205.011,2287.507v8.783h39.4v-12.008h-20.691l3.676-4.242h-15.913Z" transform="translate(1748.515 -2227.601)" fill="#f3f3f3"/>
    <path id="Path_110" data-name="Path 110" d="M-1165.615,2260.4v-8.715h-39.4V2263.7h20.624l-3.551,4.1h15.918Z" transform="translate(1748.515 -2227.601)" fill="#f3f3f3"/>
    <path id="Path_111" data-name="Path 111" d="M-1110.731,2280.043v16.249h-11.982v-.551A23.253,23.253,0,0,1-1133,2298a23.077,23.077,0,0,1-16.954-7.03,23.219,23.219,0,0,1-6.31-10.929,24.927,24.927,0,0,1-.719-6.052v-22.31h11.992v22.31a11.688,11.688,0,0,0,1.6,6.052,12.311,12.311,0,0,0,1.927,2.448A11.591,11.591,0,0,0-1133,2286a11.529,11.529,0,0,0,8.5-3.51,12.141,12.141,0,0,0,1.787-2.259v-.189Z" transform="translate(1748.442 -2227.601)" fill="#f3f3f3"/>
    <rect id="Rectangle_22" data-name="Rectangle 22" width="11.99" height="16.108" transform="translate(625.723 24.086)" fill="#f3f3f3"/>
    <rect id="Rectangle_23" data-name="Rectangle 23" width="11.982" height="56.611" transform="translate(651.42 12.082)" fill="#f3f3f3"/>
    <path id="Path_112" data-name="Path 112" d="M-1704.444,2281.775v9.169H-1731.9v-43.218h9.154v34.05Z" transform="translate(1749.323 -2227.601)" fill="#f3f3f3"/>
    <path id="Path_113" data-name="Path 113" d="M-1676.936,2256.89v.418a17.735,17.735,0,0,0-7.849-1.727,17.632,17.632,0,0,0-12.945,5.371,17.691,17.691,0,0,0-5.36,12.966,17.691,17.691,0,0,0,5.36,12.966,17.629,17.629,0,0,0,12.945,5.367,17.735,17.735,0,0,0,7.849-1.727v.419h9.154V2256.89Zm0,21.742a9.5,9.5,0,0,1-1.359,1.731,8.855,8.855,0,0,1-6.49,2.724,8.787,8.787,0,0,1-6.486-2.7,8.886,8.886,0,0,1-2.664-6.47,8.852,8.852,0,0,1,2.664-6.5,8.82,8.82,0,0,1,6.486-2.672,8.933,8.933,0,0,1,6.49,2.672,9.323,9.323,0,0,1,1.359,1.727Z" transform="translate(1749.279 -2227.602)" fill="#f3f3f3"/>
    <path id="Path_114" data-name="Path 114" d="M-1649.873,2247.952l-4.263-4.261-5.751-5.76-4.254-4.269a1.88,1.88,0,0,0-1.328-.551h-73.337a10.548,10.548,0,0,0-10.544,10.56v51.77a10.552,10.552,0,0,0,9.3,10.48v14.71a2.58,2.58,0,0,0,4.4,1.83l16.434-16.46h59.349a10.554,10.554,0,0,0,10.544-10.56v-46.16A1.9,1.9,0,0,0-1649.873,2247.952Zm-4.263,47.49a5.736,5.736,0,0,1-5.731,5.74H-1721.2l-14.039,14.06v-13.6l-4.243-.5a5.737,5.737,0,0,1-5.063-5.7v-51.77a5.744,5.744,0,0,1,5.741-5.74h69.643v6.93a7.631,7.631,0,0,0,7.628,7.629h7.4Z" transform="translate(1749.35 -2227.601)" fill="#f3f3f3"/>
    <path id="Path_115" data-name="Path 115" d="M-1623.164,2280.044h-2.546l1.628-1.112C-1623.773,2279.314-1623.474,2279.682-1623.164,2280.044Z" transform="translate(1749.16 -2227.601)" fill="#f3f3f3"/>
    <path id="Path_116" data-name="Path 116" d="M-1602.32,2279.822c0,.07-.01.139-.01.22h-.01A1.773,1.773,0,0,0-1602.32,2279.822Z" transform="translate(1749.124 -2227.601)" fill="#f3f3f3"/>
    <path id="Path_117" data-name="Path 117" d="M-1581.731,2267.793c-.19.73-.35,1.488-.469,2.25.12-.761.269-1.52.459-2.25Z" transform="translate(1749.093 -2227.601)" fill="#f3f3f3"/>
    <path id="Path_118" data-name="Path 118" d="M-1257.909,2267.793l-5.741,12.25h-.01Z" transform="translate(1748.606 -2227.601)" fill="#f3f3f3"/>
    <g id="Group_7" data-name="Group 7" transform="translate(100.026 40.192)">
      <path id="Path_119" data-name="Path 119" d="M-1097,2267.793v12.25h-46.369a11.684,11.684,0,0,1-1.6-6.051v-6.2Z" transform="translate(1648.397 -2267.793)" fill="#f1db00"/>
      <path id="Path_120" data-name="Path 120" d="M-1482.576,2278.583c.09.49.19.981.31,1.46h-35.076a11.67,11.67,0,0,1-1.608-6.051,11.715,11.715,0,0,1,1.667-6.2h35.056a25.045,25.045,0,0,0-.749,6.2c0,.39.01.791.03,1.18s.04.77.07,1.15v.011c.04.379.08.759.13,1.129S-1482.635,2278.212-1482.576,2278.583Z" transform="translate(1648.971 -2267.793)" fill="#f1db00"/>
      <path id="Path_121" data-name="Path 121" d="M-1350.847,2267.793v12.25h-10.993a24.905,24.905,0,0,0,.719-6.051,25.043,25.043,0,0,0-.759-6.2Z" transform="translate(1648.73 -2267.793)" fill="#f1db00"/>
      <path id="Path_122" data-name="Path 122" d="M-1156.361,2280.043h-60.417l-5.751-12.25h65.45v6.2A24.917,24.917,0,0,0-1156.361,2280.043Z" transform="translate(1648.516 -2267.793)" fill="#f1db00"/>
      <path id="Path_123" data-name="Path 123" d="M-1373.28,2273.992a11.559,11.559,0,0,1-1.618,6.051h-94.415a11.668,11.668,0,0,1-1.6-6.051,11.7,11.7,0,0,1,1.657-6.2h94.3A11.631,11.631,0,0,1-1373.28,2273.992Z" transform="translate(1648.897 -2267.793)" fill="#f1db00"/>
      <path id="Path_124" data-name="Path 124" d="M-1338.82,2267.793v12.25h75.054l5.741-12.25Zm22.166,4.508a13.4,13.4,0,0,1,.1,1.69A15.635,15.635,0,0,0-1316.654,2272.3Z" transform="translate(1648.695 -2267.793)" fill="#f1db00"/>
      <path id="Path_125" data-name="Path 125" d="M-1231.248,2277.423h-17.813l4.523-9.63h8.756Z" transform="translate(1648.557 -2267.793)" fill="#f1db00"/>
      <path id="Path_126" data-name="Path 126" d="M-1602.392,2279.823c0,.069-.01.139-.01.221h-20.8c-.31-.361-.609-.729-.918-1.111l-1.628,1.111h-23.424v-12.25H-1627a21.474,21.474,0,0,0,8.3,4.689l13.23,3.22A4.847,4.847,0,0,1-1602.392,2279.823Z" transform="translate(1649.17 -2267.793)" fill="#f1db00"/>
      <path id="Path_127" data-name="Path 127" d="M-1582.511,2273.992a24.911,24.911,0,0,0,.719,6.051h-8.537c0-.082.01-.151.01-.221a14.579,14.579,0,0,0-5.622-12.029h14.188c-.19.73-.35,1.488-.469,2.25-.04.259-.07.509-.1.77A25.332,25.332,0,0,0-1582.511,2273.992Z" transform="translate(1649.089 -2267.793)" fill="#f1db00"/>
      <path id="Path_128" data-name="Path 128" d="M-1560.8,2267.793l-9.266,9.279a10.936,10.936,0,0,1-.41-3.08,11.627,11.627,0,0,1,1.678-6.2Z" transform="translate(1649.049 -2267.793)" fill="#f1db00"/>
      <path id="Path_129" data-name="Path 129" d="M-1531,2273.992a24.917,24.917,0,0,0,.719,6.051H-1556l12.261-12.25h13.5A25.043,25.043,0,0,0-1531,2273.992Z" transform="translate(1649.027 -2267.793)" fill="#f1db00"/>
    </g>
  </g>
</svg>
